<svg xmlns="http://www.w3.org/2000/svg" xmlns:xlink="http://www.w3.org/1999/xlink" id="Layer_2" data-name="Layer 2" viewBox="0 0 45 45"><defs><style>      .cls-1 {        fill: #010101;      }      .cls-1, .cls-2 {        stroke-width: 0px;      }      .cls-3 {        stroke: #010101;        stroke-linecap: round;        stroke-linejoin: round;      }      .cls-3, .cls-2 {        fill: none;      }      .cls-4 {        clip-path: url(#clippath);      }    </style><clipPath id="clippath"><rect class="cls-2" width="45" height="45"></rect></clipPath></defs><g id="Layer_1-2" data-name="Layer 1"><g id="g4326"><g id="g4328"><path id="path4330" class="cls-3" d="m7.21,7.21l30.58,30.58"></path></g><g id="g4332"><path id="path4334" class="cls-3" d="m7.21,7.21h0"></path></g><g id="g4336"><path id="path4338" class="cls-3" d="m36.32,13.54l-4.97-4.97"></path></g><g id="g4340"><path id="path4342" class="cls-3" d="m27.62,14.79l4.97-4.97"></path></g><g id="g4344"><path id="path4346" class="cls-3" d="m35.08,12.3l-4.97,4.97"></path></g><g id="g4348"><path id="path4350" class="cls-3" d="m16.43,25.97l-1.24-1.24,11.19-11.19,4.97,4.97-11.19,11.19-3.73-3.73Z"></path></g><g id="g4352"><path id="path4354" class="cls-3" d="m18.92,28.46l-2.49,2.49-2.49-2.49,2.49-2.49"></path></g><g id="g4356"><path id="path4358" class="cls-3" d="m10.22,34.67l4.97-4.97"></path></g><g id="g4360"><path id="path4362" class="cls-3" d="m25.86,21.52l1.24,1.24"></path></g><g id="g4364"><path id="path4366" class="cls-3" d="m21.4,25.97l1.24,1.24"></path></g><g id="g4368"><path id="path4370" class="cls-3" d="m31.35,18.52l1.24,1.24"></path></g><g id="g4372"><path id="path4374" class="cls-3" d="m26.37,13.54l-1.24-1.24"></path></g><g id="g4376"><g class="cls-4"><g id="g4378"><g id="g4384"><path id="path4386" class="cls-1" d="m38.67,7.21c0,.49-.39.88-.88.88s-.88-.39-.88-.88.39-.88.88-.88.88.39.88.88"></path></g><g id="g4388"><path id="path4390" class="cls-3" d="m40.32,10.25c2.4,3.48,3.8,7.7,3.8,12.25,0,5.98-2.42,11.38-6.33,15.29-3.91,3.91-9.32,6.33-15.29,6.33C10.55,44.12.88,34.45.88,22.5c0-5.97,2.42-11.38,6.33-15.29h0C11.12,3.3,16.53.88,22.5.88c4.55,0,8.77,1.4,12.25,3.8"></path></g></g></g></g></g></g></svg>